<svg width="118" height="50" viewBox="0 0 118 50" fill="none" xmlns="http://www.w3.org/2000/svg">
<g clip-path="url(#clip0)">
<path d="M42.5756 21.6099C42.5756 21.3412 42.5756 21.106 42.5756 20.8709C42.8501 20.8247 43.1122 20.8037 43.3617 20.7365C44.0604 20.5559 44.4513 20.0604 44.4222 19.334C44.4014 18.8343 44.3183 18.3345 44.2476 17.8348C43.9564 15.773 43.657 13.7112 43.3659 11.6494C43.1038 9.81014 42.8501 7.96669 42.5881 6.12744C42.584 6.10224 42.5673 6.08124 42.5548 6.06025C42.5382 6.05605 42.5257 6.05185 42.5133 6.05185C42.5049 6.05185 42.4883 6.06025 42.4841 6.06865C41.2115 11.2463 39.943 16.4197 38.6662 21.6141C37.3811 21.6141 36.1084 21.6141 34.8108 21.6141C33.0016 16.2685 31.1925 10.9187 29.3792 5.57314C29.3584 5.57314 29.3376 5.57314 29.3209 5.57314C29.296 5.69492 29.2627 5.81249 29.2461 5.93427C29.0672 7.27802 28.8925 8.62177 28.7179 9.96552C28.5349 11.3639 28.3436 12.7622 28.1606 14.1647C27.9609 15.689 27.7613 17.2134 27.5617 18.7377C27.5367 18.9182 27.5326 19.0988 27.5326 19.2836C27.5409 19.9554 27.857 20.4342 28.4891 20.6567C28.8094 20.7701 29.1546 20.8121 29.5164 20.8961C29.5164 21.106 29.5164 21.337 29.5164 21.5721C29.2336 21.6561 25.3366 21.6855 24.6587 21.6057C24.6587 21.3664 24.6587 21.1228 24.6587 20.8583C24.771 20.8457 24.875 20.8373 24.9831 20.8163C25.8107 20.6693 26.4221 20.0226 26.5469 19.1282C26.7839 17.4275 27.0002 15.7226 27.2331 14.0178C27.5201 11.8972 27.8154 9.78075 28.1023 7.66015C28.2437 6.62294 28.381 5.58154 28.5141 4.54013C28.5349 4.37636 28.5182 4.2042 28.5016 4.04043C28.4642 3.70869 28.2645 3.50713 27.9485 3.43994C27.6948 3.38535 27.4369 3.36435 27.1624 3.32236C27.1624 3.08301 27.1624 2.84785 27.1624 2.5875C29.2669 2.5875 31.3672 2.5875 33.509 2.5875C35.131 7.80712 36.7572 13.0393 38.3875 18.2758C38.5248 18.0868 39.7267 13.4467 40.4504 10.4652C41.0867 7.83651 41.7688 5.21621 42.4342 2.5791C44.3973 2.5791 46.3312 2.5791 48.2943 2.5791C48.2943 2.83105 48.2943 3.07041 48.2943 3.33076C48.0738 3.35596 47.8534 3.36855 47.6413 3.41055C47.1214 3.51553 46.9135 3.78428 46.9551 4.33437C46.9883 4.76689 47.059 5.19521 47.1214 5.62353C47.45 7.94989 47.7785 10.2721 48.1071 12.5984C48.4107 14.7274 48.706 16.8606 49.0179 18.9896C49.1053 19.6027 49.3548 20.136 49.883 20.5055C50.2032 20.7281 50.5568 20.8163 50.9643 20.8457C50.9643 21.0976 50.9643 21.3412 50.9643 21.6099C48.1695 21.6099 45.3913 21.6099 42.5756 21.6099Z" fill="#09090B"/>
<path d="M24.642 43.8015C24.642 43.5412 24.642 43.306 24.642 43.0247C24.7792 43.0163 24.9123 43.0079 25.0454 42.9953C25.9895 42.9071 26.526 42.357 26.5925 41.3996C26.6009 41.2736 26.6009 41.1476 26.6009 41.0216C26.6009 36.5285 26.6009 32.0395 26.6009 27.5464C26.6009 27.307 26.5925 27.0719 26.5634 26.8367C26.4844 26.1438 26.0893 25.7239 25.4031 25.6063C25.1577 25.5644 24.9123 25.5476 24.6503 25.5182C24.6503 25.2788 24.6503 25.0437 24.6503 24.7791C24.7501 24.7707 24.8541 24.7539 24.9581 24.7539C28.672 24.7539 32.386 24.7539 36.1 24.7539C36.8403 24.7539 37.5598 24.8547 38.2627 25.0982C40.9494 26.0263 41.8269 28.4744 40.9785 30.8764C40.6208 31.8926 39.918 32.64 38.9988 33.1649C38.4956 33.4505 37.9549 33.6688 37.4226 33.9208C37.6305 33.9754 37.8593 34.0342 38.088 34.0971C38.8824 34.3071 39.6351 34.6178 40.3047 35.1092C41.436 35.9322 41.9975 37.0702 42.1056 38.4559C42.3011 40.9377 40.7206 42.5754 38.9489 43.3312C38.2169 43.6462 37.4475 43.8267 36.649 43.8267C32.6979 43.8351 28.7511 43.8309 24.8 43.8309C24.7667 43.8267 24.7251 43.8141 24.642 43.8015ZM31.2215 42.9953C31.3172 42.9995 31.3962 43.0079 31.4752 43.0079C32.1947 43.0079 32.9142 43.0121 33.6379 43.0079C34.9854 42.9995 36.0002 42.3906 36.6989 41.2484C37.2853 40.291 37.4933 39.237 37.4517 38.12C37.3768 36.0792 35.9461 34.5045 33.929 34.3407C33.1346 34.2777 32.3278 34.3659 31.5251 34.3869C31.4211 34.3911 31.3172 34.4163 31.2215 34.4331C31.2215 37.3011 31.2215 40.1356 31.2215 42.9953ZM31.2257 33.5932C31.8953 33.5387 32.5399 33.4883 33.1845 33.4295C34.374 33.3161 35.3098 32.7492 35.9711 31.7498C36.8653 30.3976 36.807 28.6634 35.838 27.2608C35.2557 26.4126 34.4905 25.8163 33.4757 25.6105C32.7395 25.4636 31.9909 25.5644 31.2257 25.535C31.2257 28.2267 31.2257 30.8764 31.2257 33.5932Z" fill="#09090B"/>
<path d="M12.9678 5.65684C13.367 5.66523 13.7621 5.67783 14.1614 5.68623C14.1614 7.12236 14.1656 8.55849 14.1531 9.99462C14.1489 10.3306 14.1864 10.6203 14.4775 10.8261C14.6605 11.5609 15.0805 12.1404 15.6462 12.6149C16.0829 12.9803 16.5279 13.3414 16.977 13.6857C18.7363 15.0421 19.7345 16.8519 20.142 19.0271C20.35 20.1441 20.4165 21.2737 20.4165 22.4075C20.4124 28.8995 20.3957 35.3914 20.4248 41.8876C20.429 43.3195 19.2479 44.3484 17.9835 44.34C12.8014 44.3106 7.61514 44.3148 2.43302 44.34C1.16037 44.3442 -0.00414789 43.3279 1.11065e-05 41.917C0.0166471 35.2025 0.0083291 28.4837 0.0166471 21.7692C0.0166471 20.5892 0.17053 19.426 0.457501 18.2839C0.939945 16.3774 1.99217 14.8657 3.5518 13.6983C3.94274 13.4086 4.32121 13.102 4.69968 12.7955C5.30689 12.3 5.7519 11.6869 5.94322 10.91C5.95154 10.8681 5.96401 10.8261 5.97233 10.7799C5.97233 10.7421 5.97233 10.7043 5.97233 10.6665C6.34664 10.6665 6.72095 10.6623 7.09942 10.6623C7.05783 10.8765 7.0204 11.0906 6.96633 11.3006C6.72095 12.279 6.14285 13.0306 5.39007 13.6605C4.9409 14.0343 4.47925 14.3912 4.0176 14.7523C2.71584 15.7643 1.8882 17.0787 1.49725 18.687C1.2186 19.8376 1.1063 21.0007 1.1063 22.1807C1.10215 28.6895 1.1063 35.1983 1.1063 41.707C1.1063 41.8036 1.10215 41.9044 1.1063 42.001C1.1271 42.5679 1.46398 43.0172 2.01297 43.1642C2.19596 43.2146 2.39559 43.2272 2.58691 43.2272C7.67336 43.2314 12.764 43.2314 17.8504 43.2314C17.9336 43.2314 18.0168 43.2356 18.1 43.2314C18.8278 43.1894 19.3102 42.6897 19.3227 41.959C19.331 41.4845 19.3269 41.0058 19.3227 40.5313C19.3227 40.4389 19.3019 40.3465 19.2853 40.2163C14.7769 40.2163 10.2935 40.2163 5.76022 40.2163C5.80597 39.5529 5.74359 38.9524 5.2653 38.4779C4.79118 38.0075 4.19228 37.9488 3.58923 37.9782C3.56427 37.8858 3.54348 37.848 3.54348 37.806C3.53932 33.4094 3.53932 29.017 3.53932 24.6205C3.53932 24.5659 3.55179 24.5113 3.56427 24.4567C3.56843 24.4441 3.58091 24.4357 3.58923 24.4273C3.59754 24.4189 3.61002 24.4063 3.64745 24.3727C4.22555 24.4063 4.80781 24.3643 5.27362 23.8898C5.74775 23.4069 5.80181 22.8106 5.75606 22.1471C10.2977 22.1471 14.7852 22.1471 19.2479 22.1471C19.2811 22.0799 19.3019 22.0589 19.3061 22.0338C19.3144 21.9666 19.3186 21.8952 19.3186 21.8238C19.2978 20.774 19.1896 19.7326 18.9484 18.708C18.5533 17.0241 17.6882 15.651 16.3324 14.5886C15.8416 14.2022 15.3467 13.8159 14.8726 13.4044C14.1032 12.7409 13.5667 11.9263 13.3795 10.9016C13.367 10.8219 13.3296 10.7463 13.2963 10.6455C13.1216 10.6455 12.9594 10.6455 12.7931 10.6455C11.117 10.6413 9.43678 10.6371 7.7607 10.6329C7.7607 8.97001 7.7607 7.30712 7.7607 5.64424C7.81477 5.63164 7.86468 5.61904 7.91874 5.60645C8.04767 5.63584 8.17244 5.69043 8.30137 5.69043C9.71959 5.69463 11.142 5.69463 12.5602 5.69043C12.6974 5.69883 12.8305 5.66943 12.9678 5.65684ZM19.2936 39.1203C19.2936 33.8041 19.2936 28.5383 19.2936 23.2641C15.1096 23.2641 10.9465 23.2641 6.79165 23.2641C6.48805 24.4357 5.74359 25.137 4.62482 25.4477C4.62482 29.2816 4.62482 33.0987 4.62482 36.9325C5.76438 37.2391 6.50052 37.9614 6.79997 39.1203C10.9673 39.1203 15.1221 39.1203 19.2936 39.1203Z" fill="#09090B"/>
<path d="M72.9946 30.1253C72.9946 29.8943 72.9946 29.6592 72.9946 29.4072C75.1864 29.4072 77.3574 29.4072 79.5866 29.4072C79.5908 29.5626 79.5991 29.7222 79.5991 29.8817C79.5991 33.2663 79.5991 36.6551 79.5991 40.0396C79.5991 41.6017 80.4559 42.6138 81.9864 42.8615C83.4088 43.0925 84.6481 42.0637 84.698 40.6023C84.7147 40.1278 84.7022 39.6491 84.7022 39.1746C84.7022 36.8356 84.7022 34.5009 84.7022 32.1619C84.7022 31.952 84.698 31.742 84.6565 31.5362C84.4943 30.7384 84.0118 30.3059 83.205 30.2135C83.0552 30.1967 82.9097 30.1799 82.7516 30.1631C82.7516 29.8943 82.7516 29.6634 82.7516 29.4072C85.064 29.4072 87.3598 29.4072 89.7013 29.4072C89.7055 29.5626 89.7138 29.7264 89.7138 29.8859C89.7138 33.6778 89.7138 37.4697 89.7138 41.2616C89.7138 41.4002 89.7055 41.5429 89.7179 41.6815C89.7762 42.3996 90.2004 42.8615 90.9033 42.9917C90.9698 43.0043 91.0363 43.0169 91.1195 43.0337C91.1195 43.2898 91.1195 43.5376 91.1195 43.7979C89.2979 43.7979 87.5012 43.7979 85.6629 43.7979C85.5714 43.0841 85.4799 42.366 85.3801 41.5765C85.3053 41.6773 85.2637 41.7193 85.2387 41.7655C84.8561 42.5382 84.2281 43.0463 83.4711 43.4116C82.6352 43.8147 81.7368 43.9827 80.8219 44.0457C79.9194 44.1087 79.0252 44.0709 78.1393 43.8399C76.1347 43.3234 75.0575 41.8369 74.9618 39.7961C74.9327 39.141 74.9535 38.4817 74.9535 37.8224C74.9535 36.0042 74.9535 34.1859 74.9494 32.3635C74.9494 32.1115 74.9327 31.8596 74.8953 31.6118C74.7747 30.7762 74.2756 30.3017 73.4355 30.2051C73.3107 30.1925 73.1901 30.1757 73.0653 30.1589C73.0445 30.1673 73.0196 30.1421 72.9946 30.1253Z" fill="#09090B"/>
<path d="M74.2715 43.0295C74.2715 43.2773 74.2715 43.5124 74.2715 43.777C72.4915 43.777 70.7281 43.777 68.9231 43.777C68.8316 42.9749 68.7359 42.1687 68.6403 41.3624C68.6195 41.3582 68.5987 41.3582 68.582 41.354C68.5404 41.4674 68.4947 41.5808 68.4531 41.6942C68.0829 42.6684 67.4092 43.3402 66.4277 43.6552C64.9886 44.1213 63.5122 44.2179 62.0399 43.8525C60.289 43.42 59.3241 42.2233 59.008 40.4638C58.8333 39.4854 58.9207 38.5112 59.112 37.5453C59.1203 37.4949 59.1577 37.4446 59.1827 37.39C62.069 36.8399 64.9512 36.294 67.8916 35.7313C67.8916 35.3491 67.9041 34.9628 67.8875 34.5765C67.8584 33.8038 67.7461 33.0438 67.4549 32.3215C66.7895 30.6838 65.4753 30.0623 63.8657 30.2429C63.3292 30.3017 62.8052 30.4529 62.3186 30.6964C62.2354 30.7384 62.1564 30.7888 62.0566 30.8476C63.5288 31.2843 64.3107 32.6533 63.8948 34.0642C63.5704 35.1812 62.5265 35.9244 61.362 35.8069C60.1018 35.6809 59.1993 34.7109 59.1452 33.4889C59.0995 32.4895 59.5362 31.7084 60.2266 31.045C60.9211 30.3731 61.7571 29.9406 62.6596 29.6382C64.3232 29.0839 66.0242 28.9789 67.7461 29.2561C68.3034 29.3443 68.8607 29.4829 69.3847 29.6886C71.0067 30.3143 71.9716 31.5573 72.4582 33.1992C72.8325 34.4715 72.9074 35.7775 72.8741 37.1002C72.8367 38.6119 72.845 40.1236 72.8616 41.6354C72.8658 42.2652 73.2318 42.7062 73.8307 42.9035C73.9596 42.9623 74.0969 42.9875 74.2715 43.0295ZM63.1504 38.7421C63.1504 39.4266 63.1504 40.0691 63.1504 40.7157C63.1504 40.8123 63.167 40.9089 63.1878 41.0055C63.429 42.1729 64.4937 42.9707 65.6541 42.8573C66.96 42.7314 67.8168 41.8285 67.8209 40.5478C67.8292 39.2586 67.8209 37.9737 67.8209 36.6845C67.8209 36.6089 67.8085 36.5291 67.8043 36.4577C67.7502 36.4577 67.717 36.4493 67.6962 36.4577C66.1906 37.2178 64.6767 37.9737 63.1504 38.7421Z" fill="#09090B"/>
<path d="M80.0108 19.2999C79.9734 19.3796 79.9318 19.4594 79.9027 19.5392C79.5367 20.5176 78.8629 21.1811 77.8814 21.5002C76.4424 21.9664 74.9659 22.0671 73.4978 21.706C71.8592 21.3029 70.8776 20.2111 70.5158 18.5608C70.2746 17.4648 70.3536 16.3688 70.6031 15.2434C73.5103 14.6891 76.4174 14.1348 79.3329 13.5805C79.4119 12.8541 79.3703 12.157 79.2497 11.4683C79.1665 10.9896 79.0501 10.5067 78.8629 10.0616C78.289 8.70944 77.2451 8.05016 75.7936 8.05436C75.0158 8.05436 74.0842 8.32731 73.5436 8.69684C73.7557 8.77242 73.9719 8.82281 74.1674 8.9236C75.2321 9.46529 75.7395 10.9266 75.2903 12.115C74.8536 13.2614 73.6309 13.8871 72.4123 13.5889C71.2395 13.3034 70.4659 12.1276 70.6239 10.8762C70.7445 9.92721 71.2603 9.22174 71.9715 8.64225C72.9655 7.8318 74.1258 7.39508 75.3652 7.15573C76.8957 6.86178 78.4304 6.87858 79.9443 7.23551C82.1818 7.76461 83.5002 9.22594 84.0325 11.4473C84.3154 12.6231 84.3902 13.8157 84.3237 15.0251C84.2696 15.9321 84.3112 16.8433 84.3112 17.7545C84.3112 18.2165 84.3112 18.6784 84.3112 19.1403C84.3112 20.1901 84.673 20.6394 85.7086 20.8578C85.7086 21.0971 85.7086 21.3407 85.7086 21.6136C83.9452 21.6136 82.1901 21.6136 80.4101 21.6136C80.2312 20.862 80.252 20.0683 80.0108 19.2999ZM74.6249 16.5788C74.6249 17.3094 74.6207 18.0065 74.6291 18.7036C74.6291 18.8127 74.6623 18.9219 74.6914 19.0311C75.0075 20.1397 76.0805 20.8452 77.2076 20.694C78.4595 20.526 79.2747 19.6526 79.2871 18.4348C79.2996 17.1079 79.2913 15.7809 79.2913 14.4498C79.2913 14.3994 79.2788 14.349 79.2705 14.2482C77.7109 15.0293 76.1804 15.7977 74.6249 16.5788Z" fill="#09090B"/>
<path d="M101.139 30.1673C101.139 29.8901 101.139 29.6592 101.139 29.4072C103.164 29.4072 105.165 29.4072 107.198 29.4072C108.413 33.5854 109.802 37.7007 110.867 41.9167C110.891 41.9125 110.921 41.9083 110.946 41.9083C111.233 41.0684 111.519 40.2286 111.806 39.393C112.63 36.9784 113.453 34.5597 114.269 32.1409C114.339 31.931 114.397 31.7126 114.422 31.49C114.481 30.9735 114.256 30.5872 113.778 30.394C113.562 30.3059 113.329 30.2681 113.1 30.2219C112.954 30.1925 112.8 30.1883 112.626 30.1757C112.617 30.0371 112.605 29.9153 112.605 29.7936C112.605 29.6718 112.613 29.5458 112.622 29.4072C114.256 29.4072 115.866 29.4072 117.5 29.4072C117.5 29.6634 117.5 29.8943 117.5 30.1757C117.338 30.1925 117.176 30.2093 117.014 30.2261C116.456 30.2765 115.99 30.5116 115.691 30.9861C115.471 31.3347 115.271 31.7126 115.138 32.1031C113.586 36.6005 112.052 41.102 110.513 45.6036C110.426 45.8555 110.359 46.1117 110.276 46.3636C109.852 47.6612 109.007 48.5682 107.785 49.1393C106.92 49.5424 106.005 49.7818 105.065 49.8532C103.85 49.9456 102.632 49.9624 101.359 50.0128C101.322 48.6312 101.351 47.3127 101.338 45.9437C101.53 45.9437 101.675 45.9437 101.825 45.9437C103.434 45.9395 105.04 45.9479 106.649 45.9311C107.369 45.9227 108.088 45.8387 108.775 45.5994C109.611 45.3054 110.076 44.7428 110.222 43.8525C109.128 43.8525 108.038 43.8525 106.92 43.8525C106.774 43.4494 106.633 43.0631 106.5 42.6683C105.223 38.9184 103.946 35.1685 102.669 31.4186C102.594 31.1961 102.503 30.9735 102.424 30.751C102.295 30.394 102.041 30.2177 101.663 30.2135C101.505 30.2009 101.342 30.1799 101.139 30.1673Z" fill="#09090B"/>
<path d="M57.3525 36.5885C54.3289 36.5885 51.3511 36.5885 48.3192 36.5885C48.3608 36.8992 48.3857 37.189 48.4356 37.4703C48.6186 38.5033 48.9763 39.4649 49.6334 40.2922C50.9102 41.8879 53.0105 42.354 54.8405 41.4218C55.2564 41.2118 55.6349 40.9137 56.005 40.6281C56.1589 40.5105 56.292 40.4349 56.4874 40.4433C56.7328 40.4559 56.9824 40.4475 57.2485 40.4475C57.2361 40.6743 57.0988 40.7961 56.9948 40.9347C56.0508 42.186 54.8072 43.0259 53.3516 43.534C51.0392 44.3402 48.785 44.2184 46.693 42.8831C44.6759 41.5981 43.5322 39.7253 43.2618 37.3191C42.8376 33.5356 45.437 29.8991 49.2882 29.2147C51.3927 28.8409 53.3141 29.265 54.9569 30.697C56.1298 31.7216 56.8326 33.0359 57.157 34.5519C57.2777 35.1229 57.3109 35.715 57.3775 36.2945C57.3775 36.3785 57.3608 36.4583 57.3525 36.5885ZM52.919 34.8206C52.919 33.8464 52.9273 32.9016 52.9107 31.9525C52.9065 31.7636 52.8275 31.5704 52.7527 31.394C52.1621 29.9621 50.4111 29.4582 49.2383 30.3946C48.6061 30.8985 48.2776 31.5746 48.2651 32.3935C48.2526 33.3551 48.2609 34.3209 48.2609 35.2867C48.2609 35.4967 48.2609 35.7024 48.2609 35.9502C49.8372 35.5681 51.376 35.1943 52.919 34.8206Z" fill="#09090B"/>
<path d="M69.8671 20.8411C69.8671 21.1266 69.8671 21.3576 69.8671 21.6095C67.0639 21.6095 64.2857 21.6095 61.4867 21.6095C61.4867 21.3534 61.4867 21.1182 61.4867 20.8621C61.6572 20.8285 61.8319 20.7991 62.0024 20.7613C62.7552 20.5933 63.4373 19.9088 63.4289 18.8968C63.4081 16.054 63.4206 13.2153 63.4206 10.3724C63.4206 8.53739 63.4206 6.70653 63.4206 4.87148C63.4206 4.78749 63.4206 4.70351 63.4206 4.61953C63.4081 3.48994 62.9257 2.98603 61.8111 2.92724C61.7154 2.92304 61.6198 2.92724 61.4867 2.92724C61.4867 2.65429 61.4867 2.39814 61.4867 2.1168C63.666 1.97402 65.8328 1.83125 68.0454 1.68848C68.0454 1.87324 68.0454 2.02441 68.0454 2.17139C68.0454 7.71434 68.0454 13.2573 68.0454 18.8003C68.0454 18.9682 68.0413 19.1362 68.0537 19.3042C68.112 20.228 68.5986 20.7277 69.5177 20.8159C69.63 20.8285 69.7381 20.8327 69.8671 20.8411Z" fill="#09090B"/>
<path d="M98.4517 11.5142C98.1107 11.4974 97.8362 11.4848 97.5492 11.468C97.5118 11.2286 97.4827 11.0103 97.4369 10.7919C96.9878 8.58733 94.667 7.168 92.3047 8.13802C91.6809 8.39417 91.2483 8.84348 91.1444 9.55315C91.0695 10.0655 91.2109 10.4896 91.5935 10.8339C91.9762 11.174 92.4337 11.3714 92.9161 11.5058C93.8186 11.7661 94.7294 12.0097 95.6361 12.2658C96.9212 12.627 98.0026 13.303 98.7179 14.462C99.5955 15.8772 99.7909 17.3847 99.1504 18.9468C98.7304 19.9672 97.9319 20.6265 96.9587 21.08C95.686 21.6721 94.3385 21.861 92.9494 21.7771C91.8015 21.7099 90.7035 21.4621 89.7012 20.87C89.2187 20.5845 88.7862 20.2359 88.4244 19.8076C88.3412 19.7068 88.2538 19.5683 88.2497 19.4465C88.233 18.5941 88.2414 17.7458 88.2414 16.885C88.624 16.885 88.9734 16.885 89.3352 16.885C89.3809 17.2335 89.3976 17.5568 89.4683 17.8676C89.8426 19.5263 90.9322 20.4459 92.5251 20.807C93.2613 20.975 94.0141 21.0044 94.7502 20.807C95.5404 20.5971 96.106 20.1226 96.2974 19.2827C96.4471 18.6318 96.2641 18.0985 95.7276 17.6954C95.3533 17.4183 94.9374 17.2335 94.4924 17.1159C93.5441 16.864 92.5917 16.6162 91.6434 16.3643C89.7386 15.8646 88.2331 14.1933 87.9877 12.2868C87.8463 11.174 88.1873 10.183 88.8486 9.3054C89.7178 8.15481 90.8865 7.47034 92.2798 7.1848C94.0765 6.81527 95.8066 7.02103 97.4245 7.92806C98.2979 8.41936 98.2937 8.42356 98.3353 9.41038C98.3727 10.0948 98.4143 10.7751 98.4517 11.5142Z" fill="#09090B"/>
<path d="M95.2992 25.6064C95.9854 25.6064 96.6467 25.6064 97.3454 25.6064C97.3454 26.862 97.3454 28.1008 97.3454 29.3773C98.2646 29.3773 99.1421 29.3773 100.049 29.3773C100.049 29.6503 100.049 29.8812 100.049 30.1584C99.6079 30.2172 99.1546 30.1794 98.7054 30.1836C98.2646 30.192 97.8279 30.1836 97.3496 30.1836C97.3496 30.3641 97.3496 30.4985 97.3496 30.6371C97.3496 34.0804 97.3579 37.5196 97.3413 40.963C97.3371 41.66 97.6698 42.1681 98.4892 42.2857C99.479 42.4285 100.261 41.8196 100.452 40.7362C100.718 40.7362 100.989 40.7362 101.305 40.7362C101.317 41.534 101.093 42.2227 100.565 42.8064C100.09 43.3271 99.4915 43.6504 98.8219 43.8058C97.3454 44.1543 95.8773 44.0956 94.4508 43.5623C93.6107 43.2515 93.0034 42.6888 92.8163 41.765C92.7622 41.5088 92.7622 41.2359 92.7622 40.9714C92.7581 37.5448 92.7581 34.114 92.7581 30.6875C92.7581 30.5363 92.7581 30.3851 92.7581 30.192C92.0968 30.192 91.4646 30.192 90.8075 30.192C90.8075 29.9064 90.8075 29.6671 90.8075 29.3857C93.2488 29.3101 94.6795 27.9622 95.2992 25.6064Z" fill="#09090B"/>
<path d="M52.1205 8.1249C52.1205 7.86455 52.1205 7.64619 52.1205 7.36064C54.2832 7.21367 56.4458 7.12129 58.6709 6.97852C58.6792 7.14228 58.6958 7.30185 58.6958 7.46142C58.6958 11.2281 58.6958 14.9906 58.7 18.7573C58.7 19.0093 58.7125 19.2612 58.7416 19.509C58.8414 20.29 59.2989 20.7351 60.0725 20.8233C60.2222 20.8401 60.3678 20.8527 60.53 20.8695C60.53 21.1383 60.53 21.3692 60.53 21.6254C57.731 21.6254 54.9528 21.6254 52.1454 21.6254C52.1454 21.386 52.1454 21.1425 52.1454 20.8821C52.2577 20.8611 52.3617 20.8401 52.4698 20.8275C53.4264 20.6889 54.0877 19.9709 54.0918 19.0051C54.1002 15.9522 54.096 12.9036 54.0918 9.85078C54.0918 9.68281 54.0669 9.51484 54.0378 9.35107C53.913 8.69179 53.493 8.33906 52.8608 8.21728C52.6237 8.17949 52.3908 8.15849 52.1205 8.1249Z" fill="#09090B"/>
<path d="M12.9675 5.65625C12.8303 5.66885 12.6931 5.69825 12.56 5.69825C11.1417 5.70244 9.71937 5.70244 8.30115 5.69825C8.17222 5.69825 8.04745 5.64366 7.91852 5.61426C7.91852 4.62325 7.91436 3.62803 7.92268 2.63702C7.931 1.36886 8.87925 0.298059 10.077 0.155286C11.5452 -0.0210808 12.6307 0.965734 12.876 2.10372C12.9343 2.37247 12.9384 2.65802 12.9426 2.93516C12.9509 3.69102 12.9426 4.44688 12.9468 5.19854C12.9426 5.34971 12.9592 5.50508 12.9675 5.65625Z" fill="#464A46"/>
<path d="M85.8293 7.61672C85.6962 7.37737 85.5964 7.201 85.4883 7.01203C85.6089 6.93225 85.7087 6.88186 85.7877 6.81047C85.979 6.62991 86.1911 6.46194 86.3409 6.25198C86.7817 5.6221 86.5946 5.19798 85.8543 5.00481C85.455 4.89983 85.0516 4.77386 84.6897 4.57649C83.6708 4.0264 83.3838 2.97659 83.4795 2.09896C83.5626 1.3431 83.9619 0.772007 84.6357 0.410875C85.6796 -0.14762 87.1186 0.0749381 87.8839 0.935776C88.0918 1.17093 88.2914 1.44388 88.3996 1.73783C88.8571 3.00179 88.8945 4.25735 88.1292 5.42893C87.6551 6.15959 87.0604 6.78528 86.3575 7.29758C86.2078 7.41096 86.0331 7.49494 85.8293 7.61672Z" fill="#09090B"/>
<path d="M53.6719 2.56153C53.6677 1.1464 54.8031 -0.00418775 56.2047 1.14578e-05C57.6021 1.14578e-05 58.75 1.16739 58.7375 2.56573C58.7251 3.95987 57.598 5.10205 56.2213 5.10625C54.8156 5.11885 53.676 3.97666 53.6719 2.56153Z" fill="#09090B"/>
<path d="M7.76076 5.64355C7.76076 7.30644 7.76076 8.96933 7.76076 10.6322C7.54034 10.6406 7.31575 10.649 7.09532 10.6616C6.72101 10.6616 6.34671 10.6658 5.96824 10.6658C5.89338 10.6532 5.82267 10.6448 5.74781 10.6322C5.74781 8.98612 5.74781 7.34003 5.74365 5.69395C6.20946 5.68135 6.67527 5.67295 7.14107 5.66035C7.34902 5.65615 7.55281 5.65195 7.76076 5.64355Z" fill="#464A46"/>
<path d="M5.74781 5.69375C5.74781 7.33984 5.74781 8.98593 5.75197 10.632C5.51907 10.6362 5.28201 10.6488 5.0491 10.6488C4.57497 10.6488 4.45852 10.5354 4.45436 10.0609C4.4502 9.30507 4.45436 8.54922 4.45436 7.79756C4.45436 7.30625 4.45436 6.81914 4.45436 6.32783C4.45436 5.73994 4.53338 5.66016 5.13228 5.66016C5.33607 5.66436 5.54402 5.68115 5.74781 5.69375Z" fill="#09090B"/>
<path d="M14.7394 5.69416C15.0014 5.68156 15.2634 5.65637 15.5213 5.66476C15.8415 5.67316 15.9663 5.80754 15.9746 6.13508C15.9871 6.48361 15.9788 6.83215 15.9788 7.18488C15.9788 8.1339 15.9788 9.08712 15.9788 10.0361C15.9788 10.54 15.8665 10.6492 15.3674 10.6492C15.1594 10.6492 14.9515 10.6408 14.7477 10.6366C14.7435 8.98634 14.7394 7.34025 14.7394 5.69416Z" fill="#09090B"/>
<path d="M14.7394 5.69395C14.7436 7.34004 14.7436 8.98613 14.7478 10.6322C14.6479 10.6784 14.4608 10.6028 14.4816 10.8254C14.1863 10.6238 14.153 10.3299 14.1572 9.99394C14.1738 8.55781 14.1655 7.12168 14.1655 5.68555C14.3527 5.68975 14.5481 5.68975 14.7394 5.69395Z" fill="#464A46"/>
<path d="M5.97148 10.7793C5.96341 10.8213 5.95131 10.8633 5.94324 10.9095C5.95131 10.8675 5.95938 10.8255 5.97148 10.7793Z" fill="#464A46"/>
<path d="M7.09518 10.6622C7.3156 10.6538 7.54019 10.6454 7.76062 10.6328C9.43669 10.637 11.1169 10.6412 12.793 10.6454C12.9594 10.6454 13.1216 10.6454 13.2962 10.6454C13.3295 10.7462 13.3628 10.8218 13.3794 10.9016C13.5624 11.9262 14.1031 12.7408 14.8725 13.4043C15.3466 13.8116 15.8374 14.2021 16.3323 14.5885C17.6881 15.6509 18.5491 17.0282 18.9483 18.7079C19.1895 19.7325 19.3018 20.7739 19.3185 21.8237C19.3185 21.8951 19.3143 21.9623 19.306 22.0337C19.3018 22.0589 19.281 22.0799 19.2478 22.147C14.7852 22.147 10.3018 22.147 5.75598 22.147C5.79757 22.8105 5.7435 23.4068 5.27354 23.8897C4.80357 24.3684 4.22547 24.4062 3.64737 24.3726C3.60994 24.4062 3.60162 24.4188 3.58914 24.4272C3.58082 24.4356 3.56419 24.4482 3.56419 24.4566C3.55587 24.5112 3.53923 24.5658 3.53923 24.6204C3.53923 29.017 3.53923 33.4093 3.54339 37.8059C3.54339 37.8437 3.56419 37.8857 3.58914 37.9781C4.1922 37.9487 4.79109 38.0075 5.26522 38.4778C5.7435 38.9523 5.80589 39.5528 5.76014 40.2163C10.2934 40.2163 14.781 40.2163 19.2852 40.2163C19.3018 40.3464 19.3226 40.4388 19.3226 40.5312C19.3268 41.0057 19.331 41.4844 19.3226 41.9589C19.306 42.6896 18.8236 43.1893 18.0999 43.2313C18.0167 43.2355 17.9335 43.2313 17.8503 43.2313C12.7639 43.2313 7.67328 43.2313 2.58682 43.2271C2.39551 43.2271 2.19588 43.2145 2.01288 43.1641C1.46389 43.0171 1.12701 42.572 1.10622 42.0009C1.10206 41.9043 1.10622 41.8036 1.10622 41.707C1.10622 35.1982 1.10622 28.6894 1.10622 22.1806C1.10622 21.0007 1.21851 19.8375 1.49716 18.6869C1.88811 17.0786 2.71575 15.76 4.01752 14.748C4.47917 14.3911 4.94082 14.0342 5.38999 13.6562C6.14277 13.0264 6.72087 12.2705 6.96625 11.2963C7.01616 11.0905 7.05359 10.8722 7.09518 10.6622ZM16.0121 17.2592C16.0204 16.5117 15.4464 15.9154 14.7145 15.907C13.9825 15.8986 13.3961 16.4823 13.3877 17.2298C13.3836 17.994 13.9326 18.5651 14.6812 18.5735C15.434 18.5777 16.0038 18.015 16.0121 17.2592Z" fill="#FE5783"/>
<path d="M19.2937 39.1199C15.118 39.1199 10.9673 39.1199 6.80003 39.1199C6.50059 37.9609 5.76444 37.2386 4.62488 36.9321C4.62488 33.0982 4.62488 29.2811 4.62488 25.4473C5.74365 25.1365 6.48811 24.4353 6.79172 23.2637C10.9466 23.2637 15.1097 23.2637 19.2937 23.2637C19.2937 28.5379 19.2937 33.8037 19.2937 39.1199Z" fill="white"/>
<path d="M16.0119 17.2578C16.0036 18.0137 15.4338 18.5764 14.681 18.568C13.9324 18.5596 13.3834 17.9885 13.3876 17.2242C13.3918 16.4767 13.9823 15.8931 14.7143 15.9015C15.4463 15.9141 16.0161 16.5145 16.0119 17.2578Z" fill="white"/>
</g>
<defs>
<clipPath id="clip0">
<rect width="117.5" height="50" fill="white"/>
</clipPath>
</defs>
</svg>
